<svg aria-hidden="true" style="position: absolute; width: 0; height: 0; overflow: hidden;" version="1.1" xmlns="http://www.w3.org/2000/svg" xmlns:xlink="http://www.w3.org/1999/xlink">
    <defs>
        <symbol id="icon-arrow" viewBox="0 0 50 32">
            <path d="M22.528 29.333l-18.889-18.889c-0.648-0.648-0.972-1.435-0.972-2.361s0.324-1.713 0.972-2.361l3.194-3.056c0.648-0.648 1.435-0.972 2.361-0.972s1.713 0.324 2.361 0.972l13.333 13.333 13.333-13.333c0.648-0.648 1.435-0.972 2.361-0.972s1.713 0.324 2.361 0.972l3.195 3.056c0.648 0.648 0.972 1.435 0.972 2.361s-0.324 1.713-0.972 2.361l-18.889 18.889c-0.648 0.648-1.435 0.972-2.361 0.972s-1.713-0.324-2.361-0.972z"></path>
        </symbol>
        <symbol id="icon-facebook" viewBox="0 0 18 32">
            <path d="M5.869 31.975v-13.631h-4.583v-5.417h4.583v-4.286c0-2.262 0.635-4.008 1.905-5.238 1.27-1.27 2.956-1.905 5.060-1.905 1.706 0 3.095 0.079 4.167 0.238v4.821h-2.857c-1.071 0-1.806 0.238-2.202 0.714-0.317 0.397-0.476 1.032-0.476 1.905v3.75h5.060l-0.714 5.417h-4.345v13.631h-5.595z"></path>
        </symbol>
        <symbol id="icon-instagram" viewBox="0 0 32 32">
            <path d="M16 7.985c-1.435 0-2.778 0.37-4.028 1.111-1.204 0.694-2.176 1.667-2.917 2.917-0.694 1.204-1.042 2.523-1.042 3.958s0.347 2.778 1.042 4.028c0.741 1.204 1.713 2.176 2.917 2.917 1.25 0.695 2.593 1.042 4.028 1.042s2.755-0.347 3.958-1.042c1.25-0.741 2.222-1.713 2.917-2.917 0.741-1.25 1.111-2.593 1.111-4.028s-0.37-2.755-1.111-3.958c-0.694-1.25-1.667-2.222-2.917-2.917-1.204-0.741-2.523-1.111-3.958-1.111zM16 21.18c-1.435 0-2.662-0.509-3.681-1.528s-1.528-2.245-1.528-3.681c0-1.435 0.509-2.662 1.528-3.681s2.245-1.528 3.681-1.528c1.435 0 2.662 0.509 3.681 1.528s1.528 2.245 1.528 3.681c0 1.435-0.509 2.662-1.528 3.681s-2.245 1.528-3.681 1.528zM26.208 7.638c-0.046 0.509-0.255 0.949-0.625 1.319-0.324 0.37-0.741 0.556-1.25 0.556s-0.949-0.185-1.319-0.556c-0.37-0.37-0.556-0.81-0.556-1.319s0.185-0.949 0.556-1.319c0.37-0.37 0.81-0.556 1.319-0.556s0.949 0.185 1.319 0.556c0.37 0.37 0.556 0.81 0.556 1.319zM31.486 9.513c-0.092-1.343-0.301-2.5-0.625-3.472-0.417-1.157-1.065-2.153-1.945-2.986-0.833-0.88-1.829-1.528-2.986-1.944-0.972-0.324-2.13-0.509-3.472-0.556-1.296-0.093-3.449-0.139-6.458-0.139s-5.185 0.046-6.528 0.139c-1.296 0.046-2.431 0.231-3.403 0.556-1.157 0.417-2.176 1.065-3.056 1.944-0.833 0.833-1.458 1.829-1.875 2.986-0.324 0.972-0.532 2.13-0.625 3.472-0.046 1.296-0.069 3.449-0.069 6.458s0.023 5.185 0.069 6.528c0.093 1.296 0.301 2.43 0.625 3.403 0.417 1.157 1.042 2.176 1.875 3.056 0.88 0.833 1.898 1.435 3.056 1.805 0.972 0.37 2.107 0.579 3.403 0.625 1.343 0.092 3.519 0.139 6.528 0.139s5.162-0.046 6.458-0.139c1.343-0.046 2.5-0.231 3.472-0.556 1.157-0.417 2.153-1.042 2.986-1.875 0.88-0.88 1.528-1.898 1.945-3.056 0.324-0.972 0.509-2.107 0.556-3.403 0.093-1.343 0.139-3.519 0.139-6.528s-0.023-5.162-0.070-6.458zM28.153 25.138c-0.556 1.389-1.551 2.384-2.986 2.986-0.741 0.278-1.991 0.463-3.75 0.556-0.972 0.046-2.407 0.070-4.306 0.070h-2.222c-1.852 0-3.287-0.023-4.306-0.070-1.713-0.093-2.963-0.278-3.75-0.556-1.389-0.556-2.384-1.551-2.986-2.986-0.278-0.787-0.463-2.037-0.556-3.75-0.046-1.019-0.069-2.454-0.069-4.306v-2.222c0-1.852 0.023-3.287 0.069-4.306 0.093-1.759 0.278-3.009 0.556-3.75 0.556-1.435 1.551-2.431 2.986-2.986 0.787-0.278 2.037-0.463 3.75-0.556 1.019-0.046 2.454-0.069 4.306-0.069h2.222c1.852 0 3.287 0.023 4.306 0.069 1.759 0.093 3.009 0.278 3.75 0.556 1.435 0.556 2.431 1.551 2.986 2.986 0.278 0.741 0.463 1.991 0.556 3.75 0.046 0.972 0.070 2.407 0.070 4.306v2.222c0 1.852-0.023 3.287-0.070 4.306-0.092 1.713-0.278 2.963-0.556 3.75z"></path>
        </symbol>
        <symbol id="icon-twitter" viewBox="0 0 36 32">
            <path d="M31.875 8.749c0.046 0.185 0.070 0.486 0.070 0.903 0 3.333-0.81 6.551-2.431 9.653-1.667 3.287-4.005 5.903-7.014 7.847-3.287 2.176-7.060 3.264-11.319 3.264-4.074 0-7.801-1.088-11.181-3.264 0.509 0.046 1.088 0.070 1.736 0.070 3.38 0 6.412-1.042 9.097-3.125-1.62 0-3.056-0.463-4.306-1.389-1.204-0.972-2.037-2.176-2.5-3.611 0.463 0.046 0.903 0.070 1.319 0.070 0.648 0 1.296-0.070 1.944-0.208-1.667-0.37-3.056-1.227-4.167-2.57s-1.667-2.87-1.667-4.583v-0.139c1.019 0.602 2.107 0.926 3.264 0.972-0.972-0.694-1.759-1.574-2.361-2.639s-0.903-2.222-0.903-3.472c0-1.296 0.347-2.523 1.042-3.681 1.806 2.269 4.005 4.074 6.597 5.417 2.639 1.343 5.44 2.083 8.403 2.222-0.093-0.556-0.139-1.111-0.139-1.667 0-1.296 0.324-2.5 0.972-3.611 0.648-1.157 1.528-2.060 2.639-2.708s2.315-0.972 3.611-0.972c1.065 0 2.037 0.208 2.917 0.625 0.926 0.417 1.736 0.972 2.43 1.667 1.667-0.324 3.218-0.903 4.653-1.736-0.556 1.713-1.62 3.056-3.195 4.028 1.389-0.185 2.778-0.579 4.167-1.181-1.019 1.481-2.245 2.755-3.681 3.819z"></path>
        </symbol>
        <symbol id="icon-phone" viewBox="0 0 32 32">
            <path d="M22 20c-2 2-2 4-4 4s-4-2-6-4-4-4-4-6 2-2 4-4-4-8-6-8-6 6-6 6c0 4 4.109 12.109 8 16s12 8 16 8c0 0 6-4 6-6s-6-8-8-6z"></path>
        </symbol>
        <symbol id="icon-location" viewBox="0 0 32 32">
            <path d="M16 0c-5.523 0-10 4.477-10 10 0 10 10 22 10 22s10-12 10-22c0-5.523-4.477-10-10-10zM16 16c-3.314 0-6-2.686-6-6s2.686-6 6-6 6 2.686 6 6-2.686 6-6 6z"></path>
        </symbol>
        <symbol id="icon-mail" viewBox="0 0 32 32">
            <path d="M26.666 0h-21.332c-2.934 0-5.334 2.4-5.334 5.333v21.333c0 2.934 2.4 5.334 5.334 5.334h21.332c2.936 0 5.334-2.4 5.334-5.334v-21.333c0-2.934-2.398-5.333-5.334-5.333zM8 8h16c0.286 0 0.563 0.061 0.817 0.177l-8.817 10.286-8.817-10.287c0.254-0.116 0.531-0.177 0.817-0.177zM6 22v-12c0-0.042 0.002-0.084 0.004-0.125l5.864 6.842-5.8 5.8c-0.045-0.167-0.069-0.34-0.069-0.517zM24 24h-16c-0.177 0-0.35-0.024-0.517-0.069l5.691-5.691 2.826 3.297 2.826-3.297 5.691 5.691c-0.167 0.045-0.34 0.069-0.517 0.069zM26 22c0 0.177-0.024 0.35-0.069 0.517l-5.8-5.8 5.864-6.842c0.003 0.041 0.004 0.083 0.004 0.125v12z"></path>
        </symbol>
    </defs>
</svg>
